<svg width="98" height="38" viewBox="0 0 98 38" fill="none" xmlns="http://www.w3.org/2000/svg">
<g opacity="0.8">
<g clip-path="url(#clip0_23_5327)">
<mask id="mask0_23_5327" style="mask-type:luminance" maskUnits="userSpaceOnUse" x="0" y="9" width="91" height="20">
<path d="M0 9.29688H90.88V28.7028H0V9.29688Z" fill="white"/>
</mask>
<g mask="url(#mask0_23_5327)">
<path d="M8.77634 18.0198H6.04495V28.3846H2.59846V18.0198H0V14.8644H2.59846V11.6295L6.04495 10.8882V14.8654H8.77634V18.0198ZM23.1571 19.7955V28.3846H19.7106V20.9084C19.7106 19.0794 18.5443 17.8859 16.7687 17.8859C14.8591 17.8859 13.5861 19.1017 13.5861 20.9618V28.3846H10.1406V9.29688H13.5871V16.6401C14.6214 15.2623 16.106 14.5413 17.8816 14.5413C21.0632 14.5462 23.1571 16.609 23.1571 19.7955ZM32.8426 14.6519V18.2042C30.3024 18.2042 28.8935 19.6626 28.8935 21.9428V28.3846H25.446V14.8644H28.8925V16.8526C29.8735 15.4738 31.2523 14.6519 32.8426 14.6519ZM47.6901 22.817H36.9509C37.402 24.5412 38.7808 25.6541 40.5836 25.6541C42.0682 25.6541 43.3141 24.9652 43.8438 24.0367H47.531C46.5481 26.7981 43.871 28.7038 40.5303 28.7038C36.3949 28.7038 33.2666 25.6541 33.2666 21.6245C33.2666 17.5949 36.3949 14.5462 40.5303 14.5462C44.6657 14.5462 47.7939 17.5949 47.7939 21.6507C47.7997 22.0427 47.7648 22.4337 47.6882 22.818L47.6901 22.817ZM37.0042 20.3H44.0825C43.6323 18.6564 42.2273 17.5696 40.5303 17.5696C38.807 17.5696 37.4544 18.6564 37.0042 20.3ZM63.4108 14.8644V28.3846H59.9595V26.6089C59.4342 27.2709 58.7646 27.8041 58.0018 28.1678C57.2391 28.5315 56.4033 28.7162 55.5582 28.7077C51.7935 28.7077 48.9573 25.658 48.9573 21.6284C48.9573 17.5987 51.7945 14.5501 55.5582 14.5501C56.4033 14.5415 57.2391 14.7261 58.0019 15.0898C58.7647 15.4536 59.4343 15.9868 59.9595 16.6488V14.8635H63.4099L63.4108 14.8644ZM59.9595 21.6245C59.9595 19.5034 58.3682 17.8859 56.2219 17.8859C54.1008 17.8859 52.5096 19.5034 52.5096 21.6245C52.5096 23.7456 54.1008 25.3621 56.2219 25.3621C58.3731 25.3621 59.9595 23.7456 59.9595 21.6245ZM79.2597 9.29688V28.3846H75.8132V26.6089C75.288 27.271 74.6184 27.8043 73.8556 28.168C73.0928 28.5318 72.257 28.7163 71.4119 28.7077C67.6472 28.7077 64.811 25.659 64.811 21.6293C64.811 17.5987 67.6481 14.5501 71.4119 14.5501C72.257 14.5415 73.0928 14.7261 73.8556 15.0898C74.6184 15.4536 75.2879 15.9868 75.8132 16.6488V9.29688H79.2597ZM75.8132 21.6245C75.8132 19.5034 74.2219 17.8859 72.0746 17.8859C69.9536 17.8859 68.3632 19.5034 68.3632 21.6245C68.3632 23.7456 69.9545 25.3621 72.0746 25.3621C74.2219 25.3621 75.8132 23.7456 75.8132 21.6245ZM80.7792 24.3287H84.2528C84.2528 25.1768 84.9679 25.8657 85.8693 25.8657C86.7184 25.8657 87.3811 25.3359 87.3811 24.6509C87.3811 23.7233 86.3467 23.273 85.1271 22.9548C83.1127 22.4774 80.9645 21.4431 80.9645 18.7126C80.9645 16.0346 83.2185 14.5501 85.816 14.5501C88.6007 14.5501 90.6946 16.4062 90.6946 18.7126H87.221C87.221 17.9966 86.6116 17.3872 85.7849 17.3872C85.0436 17.3872 84.4333 17.8908 84.4333 18.5001C84.4333 19.3492 85.3881 19.8527 86.7931 20.1972C88.8918 20.727 90.88 21.7613 90.88 24.3598C90.88 27.1212 88.5998 28.7067 85.8431 28.7067C82.9274 28.7028 80.7792 26.7409 80.7792 24.3287Z" fill="white"/>
</g>
<path d="M94.1276 15.217C94.6914 15.217 95.1911 15.0967 95.6277 14.8551C96.0566 14.6194 96.4147 14.2733 96.665 13.8528C96.9163 13.4307 97.0414 12.9523 97.0414 12.4167V12.0121C97.0472 11.53 96.9141 11.0564 96.6582 10.6479C96.4016 10.2345 96.0409 9.89589 95.6122 9.66592C95.1579 9.41655 94.6467 9.2895 94.1286 9.29721C93.5736 9.29721 93.0758 9.41849 92.6353 9.6601C92.2076 9.88981 91.8476 10.2277 91.5913 10.6401C91.3351 11.0476 91.207 11.5046 91.207 12.0121V12.4167C91.207 12.9523 91.3332 13.4307 91.5835 13.8528C91.8348 14.2739 92.1802 14.6086 92.6217 14.8551C93.0622 15.0967 93.5639 15.217 94.1276 15.217ZM94.1276 14.5766C93.692 14.5766 93.3029 14.4825 92.9633 14.2933C92.6303 14.1123 92.3524 13.8448 92.1589 13.519C91.9648 13.192 91.8678 12.8223 91.8678 12.4099V12.0189C91.8678 11.6356 91.9648 11.2844 92.1589 10.9671C92.353 10.6498 92.6217 10.3985 92.9623 10.2141C93.3198 10.0205 93.7212 9.92261 94.1276 9.92984C94.5594 9.92984 94.9456 10.0249 95.2862 10.2141C95.6277 10.3985 95.8955 10.6498 96.0896 10.9671C96.2876 11.2819 96.391 11.647 96.3874 12.0189V12.4099C96.3874 12.8223 96.2904 13.192 96.0964 13.519C95.9034 13.8449 95.6258 14.1125 95.293 14.2933C94.9358 14.4867 94.5347 14.5846 94.1286 14.5776L94.1276 14.5766ZM93.6813 11.2669H94.1926C94.344 11.2669 94.4643 11.2999 94.5555 11.3659C94.6458 11.4328 94.6904 11.5367 94.6904 11.6793C94.6904 11.8539 94.6283 11.9704 94.506 12.0267C94.3849 12.0795 94.254 12.1063 94.1218 12.1052H93.6813V11.2669ZM93.6735 13.6121V12.5739H94.1296L94.6972 13.6121H95.4511C95.3423 13.4232 95.2307 13.2359 95.1164 13.0503L94.7894 12.4817C94.9517 12.43 95.0918 12.325 95.1872 12.1838C95.2984 12.0259 95.3559 11.8365 95.3512 11.6434C95.3543 11.5264 95.3324 11.4101 95.2871 11.3022C95.2417 11.1942 95.1739 11.0972 95.0882 11.0175C94.9174 10.8526 94.6923 10.7691 94.4129 10.7691H93.0351V13.6121H93.6735Z" fill="white"/>
</g>
</g>
<defs>
<clipPath id="clip0_23_5327">
<rect width="98" height="19.4059" fill="white" transform="translate(0 9.29688)"/>
</clipPath>
</defs>
</svg>
