<svg width="13" height="22" viewBox="0 0 13 22" fill="none" xmlns="http://www.w3.org/2000/svg">
<path d="M11.3184 11C11.3184 11.1492 11.2591 11.2923 11.1536 11.3977C11.0481 11.5032 10.905 11.5625 10.7559 11.5625H7.19336V15.125C7.19336 15.2742 7.1341 15.4173 7.02861 15.5227C6.92312 15.6282 6.78004 15.6875 6.63086 15.6875C6.48168 15.6875 6.3386 15.6282 6.23311 15.5227C6.12762 15.4173 6.06836 15.2742 6.06836 15.125V11.5625H2.50586C2.35668 11.5625 2.2136 11.5032 2.10811 11.3977C2.00262 11.2923 1.94336 11.1492 1.94336 11C1.94336 10.8508 2.00262 10.7077 2.10811 10.6023C2.2136 10.4968 2.35668 10.4375 2.50586 10.4375H6.06836V6.875C6.06836 6.72582 6.12762 6.58274 6.23311 6.47725C6.3386 6.37176 6.48168 6.3125 6.63086 6.3125C6.78004 6.3125 6.92312 6.37176 7.02861 6.47725C7.1341 6.58274 7.19336 6.72582 7.19336 6.875V10.4375H10.7559C10.905 10.4375 11.0481 10.4968 11.1536 10.6023C11.2591 10.7077 11.3184 10.8508 11.3184 11Z" fill="white"/>
</svg>
